# xmcd
#
# Track frame offsets: 
#        182
#        16505
#        40272
#        58455
#        86882
#        109695
#        130385
#        147262
#
# Disc length: 2328 seconds
#
# Revision: 9
# Processed by: cddbd v1.5.2PL0 Copyright (c) Steve Scherf et al.
# Submitted via: ExactAudioCopy v1.0b3
#
DISCID=6d091608
DTITLE=Bad Company - Straight Shooter
DYEAR=1975
DGENRE=Hard Rock
TTITLE0=Good Lovin' Gone Bad
TTITLE1=Feel Like Makin' Love
TTITLE2=Weep No More
TTITLE3=Shooting Star
TTITLE4=Deal With The Preacher
TTITLE5=Wild Fire Woman
TTITLE6=Anna
TTITLE7=Call On Me
EXTD=
EXTT0=
EXTT1=
EXTT2=
EXTT3=
EXTT4=
EXTT5=
EXTT6=
EXTT7=
PLAYORDER=
